<?xml version="1.0" encoding="utf-8"?>
<!-- Generator: Adobe Illustrator 14.0.0, SVG Export Plug-In  -->
<!DOCTYPE svg PUBLIC "-//W3C//DTD SVG 1.0//EN" "http://www.w3.org/TR/2001/REC-SVG-20010904/DTD/svg10.dtd" [
	<!ENTITY ns_flows "http://ns.adobe.com/Flows/1.0/">
]>
<svg version="1.0"
	 xmlns="http://www.w3.org/2000/svg" xmlns:xlink="http://www.w3.org/1999/xlink" xmlns:a="http://ns.adobe.com/AdobeSVGViewerExtensions/3.0/"
	 x="0px" y="0px" width="64px" height="64px" viewBox="-8.433 -8.39 64 64" enable-background="new -8.433 -8.39 64 64"
	 xml:space="preserve">
<defs>
</defs>
<path fill="#FFFFFF" d="M43.519,26.706c2.072-0.484,3.616-2.338,3.616-4.558c0-2.53-2.007-4.586-4.516-4.675l-0.002-0.02H29.948
	c0,0,2.48-17.453-5.315-17.453c-5.05,1.152-2.244,8.033-4.075,12.108c-2.561,5.191-5.122,6.831-6.12,7.3
	c-0.264,0.125-0.436,0.385-0.436,0.677V43.5c0,0.688,0.57,1.376,1.288,1.971c1.401,1.159,3.189,1.75,5.009,1.75h16.825l0.001-0.004
	c1.729-0.038,3.119-1.449,3.119-3.186c0-0.902-0.376-1.715-0.979-2.295c2.188-0.107,3.932-1.91,3.932-4.124
	c0-1.179-0.496-2.239-1.287-2.992c0.059,0.003,0.116,0.009,0.176,0.009c2.169,0,3.928-1.838,3.928-4.104
	C46.014,28.787,44.979,27.305,43.519,26.706"/>
<path fill="#FFFFFF" d="M9.962,47.221H1.487C0.666,47.221,0,46.555,0,45.733V19.008c0-0.822,0.666-1.488,1.487-1.488h8.475
	c0.821,0,1.487,0.666,1.487,1.488v26.726C11.449,46.555,10.783,47.221,9.962,47.221"/>
</svg>
